<?xml version="1.0" encoding="UTF-8"?>
<svg width="87px" height="74px" viewBox="0 0 87 74" version="1.1" xmlns="http://www.w3.org/2000/svg" xmlns:xlink="http://www.w3.org/1999/xlink">
    <!-- Generator: Sketch 53 (72520) - https://sketchapp.com -->
    <title>guest_eta_icon</title>
    <desc>Created with Sketch.</desc>
    <g id="Page-1" stroke="none" stroke-width="1" fill="none" fill-rule="evenodd">
        <path d="M44.0262036,38.0588235 C53.6951371,38.0588235 61.5625,29.7453012 61.5625,19.5258559 C61.5625,9.31174439 53.6951371,1 44.0262036,1 C34.3623165,1 26.5,9.31174439 26.5,19.5258559 C26.5,29.7453012 34.3623165,38.0588235 44.0262036,38.0588235 L44.0262036,38.0588235 Z M43.4949983,3.11764706 C51.6994228,3.11764706 58.375,10.2417422 58.375,18.9964397 C58.375,27.7564777 51.6994228,34.8823529 43.4949983,34.8823529 C35.2955755,34.8823529 28.625,27.7564777 28.625,18.9964397 C28.625,10.2417422 35.2955755,3.11764706 43.4949983,3.11764706 L43.4949983,3.11764706 Z M70.0742359,31.2161035 C67.6897827,31.2161035 65.4558209,30.3852037 63.6114648,28.813795 C63.0780562,28.3566263 62.285468,28.4365874 61.8473707,28.9945766 C61.4076013,29.5508274 61.4861912,30.3730357 62.0212719,30.8302044 C64.285332,32.7596996 67.1446693,33.8235294 70.0742359,33.8235294 C77.0988418,33.8235294 82.8125,27.8855514 82.8125,20.586497 C82.8125,13.2891809 77.0988418,7.35294118 70.0742359,7.35294118 C67.141325,7.35294118 64.2819877,8.41503268 62.0195998,10.3445279 C61.4861912,10.7999583 61.4076013,11.6221666 61.8473707,12.1784175 C62.285468,12.7346683 63.0780562,12.8163677 63.6131369,12.3609373 C65.4257226,10.8121263 67.7215531,9.96036713 70.0742359,9.96036713 C75.7143205,9.96036713 80.3043094,14.7267418 80.3043094,20.586497 C80.3043094,26.4479905 75.7143205,31.2161035 70.0742359,31.2161035 L70.0742359,31.2161035 Z M61.1044292,47.2235223 C56.5721226,39.1901366 47.0574576,40.1954218 46.7880958,40.2381242 L39.036831,40.2381242 C38.6955277,40.2310072 31.0396271,40.0174952 26.5407817,46.8943581 C24.0462563,50.6984287 20.3822654,65.2955265 19.0940129,71.3699404 C18.9400919,72.0905431 19.3650479,72.8040287 20.0409622,72.9659419 C20.7168765,73.1314137 21.3877716,72.6777008 21.5400196,71.9570981 C22.8951944,65.5784297 26.4688403,51.6716871 28.6003126,48.4209683 C32.3011107,42.7629026 38.8979674,42.919478 38.9933316,42.9070231 L46.9219402,42.8999061 C47.0055929,42.8892305 55.3056198,42.0405206 58.9880143,48.6576106 C59.0164563,48.7092094 59.0482443,48.7590288 59.0833785,48.807069 C61.343676,51.8407174 65.1281269,65.4948042 66.5217819,71.9624359 C66.6556263,72.5798412 67.1726004,72.9979687 67.7447853,72.9979687 C67.8368033,72.9979687 67.9304944,72.9872931 68.0258585,72.9659419 C68.7000998,72.8004702 69.1233828,72.0852053 68.9677886,71.3646026 C67.8736105,66.2919154 63.9954686,51.2250914 61.1044292,47.2235223 L61.1044292,47.2235223 Z M16.9221707,33.8235294 C19.8529673,33.8235294 22.715217,32.7596996 24.9789356,30.8302044 C25.5139355,30.3730357 25.5925136,29.5508274 25.1528105,28.9945766 C24.7131075,28.4365874 23.9239825,28.3566263 23.3889826,28.813795 C21.5449046,30.3852037 19.309608,31.2161035 16.9221707,31.2161035 C11.2829368,31.2161035 6.69531227,26.4479905 6.69531227,20.586497 C6.69531227,14.7267418 11.2829368,9.96036713 16.9221707,9.96036713 C19.309608,9.96036713 21.5432328,10.7895286 23.3822951,12.3609373 C23.9189669,12.8163677 24.7097637,12.7346683 25.1477949,12.1784175 C25.587498,11.6221666 25.5089199,10.7999583 24.9739199,10.3445279 C22.7135451,8.41503268 19.8529673,7.35294118 16.9221707,7.35294118 C9.90029634,7.35294118 4.1875,13.2891809 4.1875,20.586497 C4.1875,27.8855514 9.90029634,33.8235294 16.9221707,33.8235294 L16.9221707,33.8235294 Z M85.970705,52.3359121 C84.6493686,45.9923017 83.3148023,41.7608812 82.0050421,39.7560609 C78.7471789,34.7624919 73.1625068,34.9173858 72.972327,34.9226663 L67.6406767,34.9314671 C67.3711175,34.8927436 60.969499,34.2168428 57.539647,39.3829074 C57.1444037,39.9778409 57.2783565,40.8033551 57.8373198,41.2222728 C58.3946294,41.6411904 59.1702324,41.5021379 59.5654757,40.9054443 C62.1403452,37.0242953 67.3198516,37.5453021 67.5050702,37.5629037 L73.0169779,37.5629037 C73.0599751,37.5294607 77.4721472,37.4361723 79.969291,41.2627564 C80.7415865,42.4455828 81.9901585,45.4272909 83.5479794,52.9062034 C83.6769709,53.5204986 84.1896296,53.9411765 84.7585153,53.9411765 C84.8478172,53.9411765 84.937119,53.9306155 85.0264208,53.9094936 C85.6961846,53.7510794 86.1178877,53.0470161 85.970705,52.3359121 L85.970705,52.3359121 Z M28.3855077,41.4031191 C28.7446693,42.0331899 29.5222881,42.2408669 30.1254085,41.8659924 C30.730223,41.4946378 30.9301337,40.6850496 30.5726663,40.0584987 C27.211456,34.1643446 20.1061555,34.8982539 19.9435163,34.9246535 L14.390065,34.9246535 C14.1596594,34.9246535 8.42832149,34.7592159 5.08913523,39.7575431 C3.74058512,41.7727137 2.37509343,46.0054521 1.02993164,52.3360799 C0.87915154,53.0488695 1.3128561,53.7528592 1.9972961,53.9094969 C2.09047481,53.9306166 2.18195937,53.9411765 2.27174977,53.9411765 C2.85454026,53.9411765 3.38142354,53.5205426 3.51187373,52.9045516 C4.74860939,47.0807964 6.04972306,42.9466166 7.17633841,41.2640811 C9.70910526,37.4713364 14.1088347,37.564615 14.3460169,37.564615 L20.0773548,37.5575751 C20.1366504,37.5505352 25.8679883,36.9873434 28.3855077,41.4031191 L28.3855077,41.4031191 Z" id="guest_eta_icon" stroke="#FFC18A" stroke-width="1.66195297" fill="#FFC18A"></path>
    </g>
</svg>