<?xml version="1.0" encoding="UTF-8"?>
<svg width="40px" height="66px" viewBox="0 0 40 66" version="1.1" xmlns="http://www.w3.org/2000/svg" xmlns:xlink="http://www.w3.org/1999/xlink">
    <!-- Generator: Sketch 53 (72520) - https://sketchapp.com -->
    <title>Fill 207</title>
    <desc>Created with Sketch.</desc>
    <g id="Page-1" stroke="none" stroke-width="1" fill="none" fill-rule="evenodd">
        <path d="M20.0006849,7.47064078 C20.8759327,7.47064078 21.5881844,6.75878863 21.5881844,5.8822441 C21.5881844,5.01250505 20.8759327,4.30337509 20.0006849,4.30337509 C19.1240673,4.30337509 18.4104459,5.01250505 18.4104459,5.8822441 C18.4104459,6.75878863 19.1240673,7.47064078 20.0006849,7.47064078 L20.0006849,7.47064078 Z M19.9431568,61.4216839 C21.5964027,61.4216839 22.9414627,60.0850896 22.9414627,58.4408881 C22.9414627,56.8048532 21.5964027,55.4764254 19.9431568,55.4764254 C18.2981293,55.4764254 16.9585481,56.8048532 16.9585481,58.4408881 C16.9585481,60.0850896 18.2981293,61.4216839 19.9431568,61.4216839 L19.9431568,61.4216839 Z M37.9727138,1 L2.02728616,1 C1.4602242,1 1,1.45732758 1,2.02082048 L1,63.9791795 C1,64.5426724 1.4602242,65 2.02728616,65 L37.9727138,65 C38.5397758,65 39,64.5426724 39,63.9791795 L39,2.02082048 C39,1.45732758 38.5397758,1 37.9727138,1 L37.9727138,1 Z M3.05457232,54.3603284 L36.9454277,54.3603284 L36.9454277,62.958359 L3.05457232,62.958359 L3.05457232,54.3603284 Z M3.05457232,10.674656 L36.9454277,10.674656 L36.9454277,52.3186874 L3.05457232,52.3186874 L3.05457232,10.674656 Z M3.05457232,3.04164097 L36.9454277,3.04164097 L36.9454277,8.63165394 L3.05457232,8.63165394 L3.05457232,3.04164097 Z" id="Fill-207" stroke="#FFC18A" stroke-width="1.36109398" fill="#FFC18A"></path>
    </g>
</svg>