<?xml version="1.0" encoding="UTF-8"?>
<svg width="55px" height="66px" viewBox="0 0 55 66" version="1.1" xmlns="http://www.w3.org/2000/svg" xmlns:xlink="http://www.w3.org/1999/xlink">
    <!-- Generator: Sketch 53 (72520) - https://sketchapp.com -->
    <title>notification_icon</title>
    <desc>Created with Sketch.</desc>
    <g id="Page-1" stroke="none" stroke-width="1" fill="none" fill-rule="evenodd">
        <path d="M33.3508661,5.24457201 L50.6697638,14.9869391 C50.8269554,15.0766788 51.0008399,15.1215486 51.1775066,15.1215486 C51.3541732,15.1215486 51.533622,15.0752766 51.6949869,14.9827325 C52.0107612,14.8018509 52.209685,14.4639248 52.2194226,14.0965529 C52.3487927,8.89305201 50.1397638,4.50001288 46.3115223,2.34625989 C42.5208399,0.212137458 37.5574803,0.645411985 33.2882677,3.44557131 C32.982231,3.64748565 32.8027822,3.99522702 32.8166929,4.36259895 C32.8292126,4.73137306 33.0323097,5.0650926 33.3508661,5.24457201 L33.3508661,5.24457201 Z M45.2946457,4.18171735 C47.9961155,5.70168365 49.7099213,8.64206127 50.0674278,12.242867 L35.9827822,4.31772909 C39.1794751,2.75008857 42.614042,2.67296851 45.2946457,4.18171735 L45.2946457,4.18171735 Z M3.29944882,14.9827325 C3.46081365,15.0752766 3.63887139,15.1215486 3.81832021,15.1215486 C3.9935958,15.1215486 4.16748031,15.0766788 4.32467192,14.9869391 L21.6407874,5.24457201 C21.9607349,5.0650926 22.1624409,4.73137306 22.1763517,4.36259895 C22.1874803,3.99522702 22.0080315,3.64748565 21.7006037,3.44557131 C17.4355643,0.644009802 12.4791601,0.210735275 8.67874016,2.34625989 C4.85328084,4.50001288 2.64703412,8.89305201 2.77501312,14.0965529 C2.78335958,14.4639248 2.98367454,14.8018509 3.29944882,14.9827325 L3.29944882,14.9827325 Z M9.69700787,4.18311953 C10.9948819,3.45398441 12.4388189,3.08380811 13.9870866,3.08380811 C15.6452493,3.08380811 17.3534908,3.50726736 19.0088714,4.31772909 L4.92700787,12.242867 C5.28312336,8.64346345 6.99692913,5.70168365 9.69700787,4.18311953 L9.69700787,4.18311953 Z M42.5945669,56.7958276 C49.4762205,51.9681118 54,43.9462232 54,34.8712953 C54,20.1441679 42.1132546,8.1625147 27.5013911,8.1625147 C12.8867454,8.1625147 1,20.1441679 1,34.8712953 C1,43.9462232 5.52099738,51.9653074 12.4068241,56.7958276 L7.99850394,63.3580438 C7.67577428,63.8375903 7.80097113,64.4924098 8.27671916,64.8191184 C8.45755906,64.9397061 8.65926509,65 8.8623622,65 C9.19761155,65 9.52590551,64.8373468 9.72622047,64.5358774 L14.1720997,57.9189762 C18.0949344,60.2311758 22.6395801,61.5800758 27.5013911,61.5800758 C32.3632021,61.5800758 36.9078478,60.2311758 40.8279003,57.9189762 L45.2737795,64.5358774 C45.4740945,64.8373468 45.8023885,65 46.1376378,65 C46.3379528,65 46.543832,64.9397061 46.7218898,64.8191184 C47.1990289,64.4924098 47.3242257,63.8375903 47.0014961,63.3580438 L42.5945669,56.7958276 L42.5945669,56.7958276 Z M28.4041995,59.4305294 L28.4041995,55.5717219 C28.4041995,54.9912182 27.9367979,54.5200847 27.3608924,54.5200847 C26.7849869,54.5200847 26.3175853,54.9912182 26.3175853,55.5717219 L26.3175853,59.4165076 C13.7325197,58.8037536 3.63887139,48.5650138 3.13669291,35.8542255 L7.1680315,35.8542255 C7.74393701,35.8542255 8.21133858,35.383092 8.21133858,34.8025883 C8.21133858,34.2220846 7.74393701,33.7509511 7.1680315,33.7509511 L3.14225722,33.7509511 C3.71120735,21.1046632 13.775643,10.9388369 26.3175853,10.326083 L26.3175853,14.5031859 C26.3175853,15.0836897 26.7849869,15.5548231 27.3608924,15.5548231 C27.9367979,15.5548231 28.4041995,15.0836897 28.4041995,14.5031859 L28.4041995,10.3190721 C28.4041995,10.3162677 28.4014173,10.3148655 28.4014173,10.3120611 C41.0713386,10.7817924 51.2832283,21.0079126 51.8577428,33.7509511 L47.914042,33.7509511 C47.3367454,33.7509511 46.8707349,34.2220846 46.8707349,34.8025883 C46.8707349,35.383092 47.3367454,35.8542255 47.914042,35.8542255 L51.8646982,35.8542255 C51.3569554,48.6603623 41.1186352,58.9593959 28.4041995,59.4305294 L28.4041995,59.4305294 Z M37.6200787,26.5591548 L27.7490026,33.4200359 L19.0686877,21.2378706 C18.7334383,20.7667371 18.0824147,20.6615734 17.612231,20.9980973 C17.1434383,21.3374256 17.0363255,21.9936472 17.3715748,22.4647806 L26.6514436,35.4854514 C26.7223885,35.5850064 26.8197638,35.6481046 26.9171391,35.7140072 C26.9560892,35.7406487 26.9825197,35.7855185 27.025643,35.8079535 C27.1730971,35.8836713 27.3344619,35.9229325 27.4986089,35.9229325 C27.6029396,35.9229325 27.7086614,35.9061063 27.8088189,35.8752582 C27.8394226,35.865443 27.8672441,35.8444102 27.8964567,35.8331928 C27.9632283,35.8051491 28.0286089,35.781312 28.0912073,35.7378443 L38.8038845,28.2922529 C39.2768504,27.9613378 39.3964829,27.3065183 39.0709711,26.8283739 C38.7412861,26.3502296 38.0958268,26.2296418 37.6200787,26.5591548 L37.6200787,26.5591548 Z" id="notification_icon" stroke="#FFC18A" fill="#FFC18A"></path>
    </g>
</svg>