<?xml version="1.0" encoding="UTF-8"?>
<svg width="58px" height="68px" viewBox="0 0 58 68" version="1.1" xmlns="http://www.w3.org/2000/svg" xmlns:xlink="http://www.w3.org/1999/xlink">
    <!-- Generator: Sketch 53 (72520) - https://sketchapp.com -->
    <title>one_stop_icon</title>
    <desc>Created with Sketch.</desc>
    <g id="Page-1" stroke="none" stroke-width="1" fill="none" fill-rule="evenodd">
        <path d="M53.3522379,20.8185162 L53.3627675,3.17019671 C53.3627675,1.7641921 52.7640835,1.25759399 52.2586618,1.08145373 C51.1620772,0.693321635 50.0865518,1.76263334 49.326915,2.80076978 C40.5361874,16.9325189 22.1589939,15.9754382 21.9679566,15.9582918 C21.8746942,15.9520568 21.7904573,15.9801145 21.7032118,15.9957021 L21.7002034,15.9957021 L21.6896738,15.9957021 L8.38023542,17.400148 C5.82605071,17.5170552 1.00047677,19.2893692 1.00047677,25.1596723 L1.00047677,33.8232794 C0.997468312,33.9853908 0.952341373,37.8542416 3.28540408,40.3217641 C4.52188219,41.6295666 6.15848582,42.2935998 8.15760919,42.2935998 C11.850497,42.2935998 14.6318206,43.1961238 14.6318206,43.7806601 L14.6318206,63.3665225 C14.6318206,65.3695335 16.2007338,67 18.1291583,67 L21.5979157,67 C23.5323571,67 25.105783,65.3695335 25.105783,63.3665225 L25.1087915,39.7107288 C43.0933806,40.9702096 49.5811301,52.8557807 49.6428036,52.9773643 C49.6743924,53.0397148 49.7135025,53.1005066 49.7586294,53.1535045 C50.2715723,53.8190965 51.0161667,54.5330102 51.8299559,54.5330102 C51.9969255,54.5330102 52.1699121,54.5002761 52.3428987,54.4332493 C53.0589128,54.1479956 53.3913479,53.4216118 53.3341871,52.3351537 L53.346221,34.7117745 C55.616106,33.1795101 56.9999988,30.5810515 56.9999988,27.7721598 C57.001503,24.9632681 55.6221229,22.3601332 53.3522379,20.8185162 L53.3522379,20.8185162 Z M22.875008,19.3470435 C22.8629742,19.4109528 22.8584615,19.4764208 22.8584615,19.5434477 L22.8494361,63.3665225 C22.8494361,64.0804361 22.2883578,64.6618549 21.5979157,64.6618549 L18.1291583,64.6618549 C17.4462373,64.6618549 16.8881675,64.0804361 16.8881675,63.3665225 L16.8881675,43.7806601 C16.8881675,42.0270512 15.304212,40.8595374 12.1844363,40.3077352 C10.2138933,39.960131 8.23883768,39.9554547 8.15760919,39.9554547 C6.77522065,39.9538959 5.71172914,39.5423824 4.90395694,38.6928563 C3.23275599,36.9361299 3.25682369,33.8965412 3.25682369,33.8466608 L3.25682369,25.1596723 C3.25682369,20.1576005 7.94852104,19.7632333 8.54419663,19.7304993 L21.8009869,18.3276122 C22.1123628,18.3276122 22.5215137,18.3774926 22.7080383,18.598837 C22.8930588,18.823299 22.8870419,19.2363713 22.875008,19.3470435 L22.875008,19.3470435 Z M51.6855497,33.0158399 C51.3185172,33.2200379 51.0898741,33.6159638 51.0898741,34.0446238 L51.0808487,50.9400605 C49.1148184,47.8880017 41.7079836,38.4543655 25.1117999,37.3601136 L25.1148084,19.6198271 C25.1373719,19.3813363 25.1463972,18.8513567 24.9974783,18.2652617 C30.95273,17.9410389 43.8259412,15.8460608 51.1064206,4.248861 L51.0973952,21.4794318 C51.0973952,21.9080918 51.3245342,22.3024589 51.6885581,22.5066569 C53.5733599,23.5697336 54.7466603,25.5852147 54.7436519,27.770601 C54.7436519,29.9544286 53.5718557,31.9652334 51.6855497,33.0158399 L51.6855497,33.0158399 Z" id="one_stop_icon" stroke="#FFC18A" fill="#FFC18A"></path>
    </g>
</svg>