<?xml version="1.0" encoding="UTF-8"?>
<svg width="49px" height="66px" viewBox="0 0 49 66" version="1.1" xmlns="http://www.w3.org/2000/svg" xmlns:xlink="http://www.w3.org/1999/xlink">
    <!-- Generator: Sketch 53 (72520) - https://sketchapp.com -->
    <title>premium_icon</title>
    <desc>Created with Sketch.</desc>
    <g id="Page-1" stroke="none" stroke-width="1" fill="none" fill-rule="evenodd">
        <path d="M13.4797187,48.6855458 L13.4797187,53.7059024 C13.4797187,54.2705391 13.9391428,54.728795 14.5082802,54.728795 C15.0760462,54.728795 15.5368418,54.2705391 15.5368418,53.7059024 L15.5368418,48.2791165 C15.5368418,48.0186198 15.435357,47.7676702 15.2557016,47.5767303 L5.08254215,36.8472694 L23.7941339,5.69269005 L23.7941339,25.9623288 C22.1813494,26.4124015 20.988218,27.8717282 20.988218,29.616101 C20.988218,31.7205319 22.7093443,33.433536 24.8226954,33.433536 C26.9401608,33.433536 28.66403,31.7205319 28.66403,29.616101 C28.66403,27.8703644 27.4681557,26.4110376 25.851257,25.9609649 L25.851257,5.69814547 L44.57382,36.8609079 L34.7627143,47.5903688 C34.5899159,47.7799449 34.4952883,48.0254391 34.4952883,48.2791165 L34.4952883,53.7059024 C34.4952883,54.2705391 34.9560838,54.728795 35.5238498,54.728795 C36.0916158,54.728795 36.5524114,54.2705391 36.5524114,53.7059024 L36.5524114,48.6746349 L46.6090005,37.6764942 C46.9148261,37.3423493 46.9641971,36.8499971 46.7324279,36.4626618 L25.7045155,1.46337032 C25.3314905,0.845543225 24.3097861,0.845543225 23.9381325,1.46337032 L2.91707724,36.4626618 C2.68119379,36.8554525 2.73742182,37.3559879 3.05284736,37.688769 L13.4797187,48.6855458 L13.4797187,48.6855458 Z M24.8226954,27.8512704 C25.8060003,27.8512704 26.6069069,28.6436711 26.6069069,29.616101 C26.6069069,30.5926224 25.8060003,31.3877509 24.8226954,31.3877509 C23.8435048,31.3877509 23.0453411,30.5926224 23.0453411,29.616101 C23.0453411,28.6436711 23.8435048,27.8512704 24.8226954,27.8512704 L24.8226954,27.8512704 Z M46.673457,57.6256267 C46.5719723,57.1523684 46.1523192,56.8141319 45.6668381,56.8141319 L3.33124469,56.8141319 C2.84439222,56.8141319 2.42473911,57.1523684 2.32462578,57.6256267 L1.02178115,63.7657097 C0.958696043,64.067122 1.03412389,64.3821729 1.22886488,64.6208478 C1.42497728,64.8608866 1.71846017,65 2.02840006,65 L46.9710542,65 C47.280994,65 47.5744769,64.8608866 47.7692179,64.6208478 C47.9653303,64.3821729 48.0421296,64.067122 47.9776731,63.7657097 L46.673457,57.6256267 L46.673457,57.6256267 Z M3.2969593,62.9542149 L4.16506525,58.859917 L44.8330175,58.859917 L45.7024949,62.9542149 L3.2969593,62.9542149 L3.2969593,62.9542149 Z" id="premium_icon" stroke="#FFC18A" fill="#FFC18A"></path>
    </g>
</svg>