<?xml version="1.0" encoding="UTF-8"?>
<svg width="66px" height="66px" viewBox="0 0 66 66" version="1.1" xmlns="http://www.w3.org/2000/svg" xmlns:xlink="http://www.w3.org/1999/xlink">
    <!-- Generator: Sketch 53 (72520) - https://sketchapp.com -->
    <title>time_icon</title>
    <desc>Created with Sketch.</desc>
    <g id="Page-1" stroke="none" stroke-width="1" fill="none" fill-rule="evenodd">
        <path d="M33.0022607,1 C15.3568586,1 1,15.3543654 1,32.997739 C1,50.6441273 15.3568586,65 33.0022607,65 C50.6461557,65 65,50.6441273 65,32.997739 C65,15.3543654 50.6461557,1 33.0022607,1 L33.0022607,1 Z M33.9607912,62.6907605 L33.9607912,57.9064745 C33.9607912,57.2824372 33.4543977,56.7759721 32.8304486,56.7759721 C32.2064995,56.7759721 31.6985988,57.2824372 31.6985988,57.9064745 L31.6985988,62.6726725 C16.2551042,61.998893 3.85901331,49.5226689 3.31494172,34.0483525 L8.34572,34.0483525 C8.96816202,34.0483525 9.47606264,33.5418875 9.47606264,32.9178502 C9.47606264,32.2938129 8.96816202,31.7873478 8.34572,31.7873478 L3.32247733,31.7873478 C3.94793359,16.3808615 16.3229248,3.98301891 31.7257271,3.3258202 C31.7212057,3.3710403 31.6985988,3.41023105 31.6985988,3.45846581 L31.6985988,8.49146235 C31.6985988,9.11700699 32.2064995,9.62196472 32.8304486,9.62196472 C33.4543977,9.62196472 33.9607912,9.11700699 33.9607912,8.49146235 L33.9607912,3.45846581 C33.9607912,3.4042017 33.9366773,3.35898161 33.9276345,3.30773217 C49.4901919,3.79007984 62.047545,16.2632893 62.6775227,31.7873478 L57.7567644,31.7873478 C57.1328153,31.7873478 56.6264218,32.2938129 56.6264218,32.9178502 C56.6264218,33.5418875 57.1328153,34.0483525 57.7567644,34.0483525 L62.6865654,34.0483525 C62.1394796,49.6372265 49.5610267,62.1903248 33.9607912,62.6907605 L33.9607912,62.6907605 Z M45.3410809,23.1171483 L35.1137407,30.278504 C34.4988343,29.7856049 33.7302013,29.4781083 32.8831979,29.4781083 C32.5003886,29.4781083 32.1371718,29.5549825 31.7905334,29.665018 L22.6739432,16.6838362 C22.3182621,16.1743564 21.6144354,16.0492475 21.0989992,16.4095009 C20.5880843,16.768247 20.4660073,17.4736805 20.8262098,17.9831602 L29.9608854,30.9914741 C29.5388909,31.58235 29.2826799,32.2983349 29.2826799,33.0791352 C29.2826799,35.06279 30.895302,36.6771474 32.8831979,36.6771474 C34.8665725,36.6771474 36.4791946,35.06279 36.4791946,33.0791352 C36.4791946,32.7641018 36.4264453,32.4641419 36.3510891,32.1732259 L46.6372071,24.9681575 C47.1511362,24.6109188 47.2732132,23.9054853 46.916025,23.3929909 C46.5588367,22.8820038 45.85501,22.7584022 45.3410809,23.1171483 L45.3410809,23.1171483 Z M32.8831979,34.4161426 C32.1432003,34.4161426 31.5433651,33.8162227 31.5433651,33.0791352 C31.5433651,32.3405403 32.1432003,31.739113 32.8831979,31.739113 C33.6186742,31.739113 34.2185094,32.3405403 34.2185094,33.0791352 C34.2185094,33.8162227 33.6186742,34.4161426 32.8831979,34.4161426 L32.8831979,34.4161426 Z" id="time_icon" stroke="#FFC18A" stroke-width="1.50712351" fill="#FFC18A"></path>
    </g>
</svg>